# xmcd
#
# Track frame offsets: 
#        150
#        12754
#        18471
#        24105
#        30712
#        36597
#        42412
#        49282
#        58823
#        63842
#        73167
#        78483
#        84621
#        87128
#        89716
#        98144
#        110652
#        131400
#
# Disc length: 1917 seconds
#
# Revision: 0
# Processed by: cddbd v1.5.2PL0 Copyright (c) Steve Scherf et al.
# Submitted via: ExactAudioCopy v1.0b3
#
DISCID=f1077b12
DTITLE=Rebell Robert - Rått rebell kött
DYEAR=1997
DGENRE=Punk
TTITLE0=Knulla allt
TTITLE1=Du kan inte bränna min keps
TTITLE2=Knulla en snut i röven
TTITLE3=Den sinnessjuke spärrvakten
TTITLE4=Pudelknullaren
TTITLE5=Knulla frälsningsarmén
TTITLE6=Björne (in league with Satan)
TTITLE7=Carl Tildt
TTITLE8=Loket
TTITLE9=Fibban å jag
TTITLE10=Radhushoran
TTITLE11=Stryp en politiker
TTITLE12=Knullmor
TTITLE13=Vyssans knull
TTITLE14=Loserhallen
TTITLE15=Ska man runka, ska man runka till rock'n'roll
TTITLE16=I Stockholm
TTITLE17=Bamses värld
EXTD=
EXTT0=
EXTT1=
EXTT2=
EXTT3=
EXTT4=
EXTT5=
EXTT6=
EXTT7=
EXTT8=
EXTT9=
EXTT10=
EXTT11=
EXTT12=
EXTT13=
EXTT14=
EXTT15=
EXTT16=
EXTT17=
PLAYORDER=
